<svg id="svg" version="1.1" width="400" height="400" viewBox="0 0 400 400" xmlns="http://www.w3.org/2000/svg" xmlns:xlink="http://www.w3.org/1999/xlink" ><g id="svgg"><path id="path0" d="M191.926 12.965 C 191.215 13.336,188.850 13.598,184.926 13.741 C 178.038 13.991,173.441 14.503,172.713 15.102 C 172.431 15.334,171.120 15.610,169.800 15.716 C 166.345 15.992,158.972 17.389,154.600 18.595 C 153.280 18.959,151.390 19.412,150.400 19.600 C 147.311 20.188,144.272 21.080,142.400 21.948 C 141.410 22.407,140.188 22.786,139.684 22.791 C 139.180 22.796,138.071 23.156,137.218 23.591 C 136.366 24.025,134.808 24.574,133.755 24.810 C 132.703 25.046,130.212 26.023,128.221 26.981 C 126.229 27.940,123.970 28.849,123.200 29.002 C 121.007 29.438,106.388 36.847,105.725 37.859 C 105.404 38.349,104.623 38.863,103.989 39.002 C 103.356 39.141,102.424 39.573,101.919 39.962 C 101.413 40.351,99.043 41.639,96.650 42.824 C 94.258 44.010,92.032 45.390,91.703 45.892 C 91.374 46.394,90.316 47.153,89.352 47.580 C 88.389 48.006,87.600 48.540,87.600 48.765 C 87.600 48.991,86.655 49.814,85.500 50.594 C 81.350 53.399,79.791 54.573,79.273 55.287 C 78.984 55.685,78.139 56.265,77.396 56.576 C 75.370 57.423,51.413 81.606,50.169 84.060 C 49.632 85.122,48.218 87.011,47.029 88.259 C 45.840 89.506,44.357 91.501,43.735 92.690 C 43.112 93.880,41.658 95.786,40.504 96.927 C 39.055 98.358,38.404 99.319,38.402 100.030 C 38.401 100.601,37.967 101.467,37.429 101.972 C 36.895 102.474,36.075 103.829,35.607 104.984 C 35.127 106.165,34.240 107.464,33.577 107.954 C 32.682 108.615,32.400 109.145,32.400 110.163 C 32.400 111.048,32.131 111.689,31.606 112.051 C 30.840 112.580,25.200 122.940,25.200 123.817 C 25.200 124.054,24.936 124.596,24.613 125.024 C 24.290 125.451,24.020 126.287,24.013 126.882 C 24.006 127.489,23.561 128.402,23.000 128.964 C 22.450 129.514,22.000 130.395,22.000 130.923 C 22.000 131.451,21.010 133.966,19.800 136.511 C 18.590 139.057,17.600 141.508,17.600 141.958 C 17.600 142.409,17.150 143.795,16.600 145.038 C 16.050 146.282,15.600 147.615,15.600 148.001 C 15.600 148.387,15.353 149.309,15.051 150.051 C 14.749 150.793,14.279 152.660,14.008 154.200 C 13.736 155.740,13.276 157.630,12.984 158.400 C 12.692 159.170,12.243 161.060,11.986 162.600 C 11.729 164.140,11.267 165.878,10.959 166.462 C 10.652 167.046,10.400 168.092,10.400 168.788 C 10.400 169.484,10.176 170.446,9.903 170.926 C 9.630 171.407,9.280 173.420,9.126 175.400 C 8.971 177.380,8.540 181.070,8.168 183.600 C 7.289 189.564,6.865 224.011,7.637 226.600 C 8.197 228.476,8.733 232.364,9.126 237.400 C 9.280 239.380,9.630 241.393,9.903 241.874 C 10.176 242.354,10.400 243.227,10.400 243.813 C 10.400 244.399,10.653 245.446,10.962 246.140 C 11.271 246.833,11.629 248.030,11.757 248.800 C 12.243 251.707,12.781 253.985,13.147 254.680 C 13.355 255.076,13.816 257.015,14.171 258.988 C 14.526 260.961,14.992 262.752,15.208 262.968 C 15.424 263.184,15.600 263.842,15.600 264.430 C 15.600 265.019,16.050 266.518,16.600 267.762 C 17.150 269.005,17.600 270.366,17.600 270.785 C 17.600 271.205,18.590 273.584,19.800 276.072 C 21.010 278.560,22.000 281.023,22.000 281.544 C 22.000 282.827,30.231 299.302,31.439 300.437 C 31.985 300.950,32.400 301.797,32.400 302.400 C 32.400 303.025,32.826 303.859,33.436 304.430 C 34.006 304.964,35.002 306.480,35.649 307.800 C 36.296 309.120,37.180 310.499,37.613 310.864 C 38.046 311.229,38.404 311.949,38.409 312.464 C 38.414 313.041,39.269 314.308,40.635 315.765 C 41.854 317.065,43.316 319.045,43.883 320.165 C 44.450 321.284,45.845 323.131,46.982 324.269 C 48.120 325.406,49.394 327.116,49.814 328.069 C 50.657 329.977,74.449 354.208,77.400 356.163 C 80.431 358.171,81.803 359.183,82.800 360.147 C 83.350 360.679,84.523 361.559,85.406 362.103 C 86.289 362.646,87.267 363.399,87.579 363.775 C 87.891 364.151,88.789 364.788,89.573 365.190 C 90.358 365.593,91.445 366.399,91.989 366.982 C 92.534 367.565,94.784 368.914,96.989 369.981 C 99.195 371.047,101.439 372.390,101.974 372.965 C 103.171 374.248,123.487 384.400,124.859 384.400 C 125.402 384.400,127.096 385.033,128.623 385.807 C 130.150 386.581,132.458 387.491,133.751 387.831 C 135.044 388.170,136.484 388.690,136.951 388.984 C 137.418 389.279,138.767 389.721,139.949 389.966 C 141.131 390.212,142.571 390.665,143.149 390.974 C 144.283 391.581,149.282 392.803,150.620 392.801 C 151.071 392.800,151.618 392.978,151.836 393.196 C 152.206 393.566,154.297 394.091,157.600 394.643 C 158.370 394.771,159.567 395.129,160.260 395.438 C 160.954 395.747,162.124 396.004,162.860 396.010 C 163.597 396.015,164.920 396.215,165.800 396.455 C 166.680 396.694,168.660 397.041,170.200 397.226 C 178.376 398.205,180.400 398.645,180.400 399.443 C 180.400 399.912,183.698 400.000,201.200 400.000 C 218.987 400.000,222.000 399.917,222.000 399.427 C 222.000 398.565,222.904 398.369,232.200 397.222 C 233.740 397.032,235.629 396.680,236.397 396.438 C 237.166 396.197,238.521 396.000,239.408 396.000 C 240.296 396.000,241.377 395.752,241.811 395.450 C 242.245 395.147,243.320 394.799,244.200 394.676 C 247.199 394.256,249.399 393.748,250.274 393.274 C 250.754 393.013,251.587 392.800,252.124 392.800 C 252.661 392.800,254.118 392.350,255.362 391.800 C 256.605 391.250,257.955 390.800,258.362 390.800 C 258.768 390.800,260.118 390.350,261.362 389.800 C 262.605 389.250,263.977 388.800,264.410 388.800 C 264.843 388.800,266.341 388.260,267.738 387.600 C 269.135 386.940,270.710 386.400,271.238 386.400 C 272.030 386.400,279.012 383.368,283.732 380.974 C 284.355 380.658,285.188 380.400,285.583 380.400 C 286.894 380.400,290.759 378.439,291.841 377.225 C 292.427 376.567,293.771 375.742,294.828 375.391 C 295.885 375.040,296.806 374.605,296.875 374.426 C 296.944 374.246,298.296 373.448,299.881 372.654 C 301.465 371.859,303.355 370.691,304.081 370.058 C 304.806 369.426,306.173 368.516,307.118 368.037 C 308.063 367.557,309.525 366.543,310.367 365.783 C 311.208 365.022,312.104 364.400,312.357 364.400 C 312.611 364.400,313.579 363.704,314.509 362.854 C 315.439 362.003,316.763 361.020,317.452 360.668 C 318.140 360.317,318.807 359.759,318.934 359.427 C 319.061 359.096,319.814 358.554,320.607 358.223 C 321.400 357.892,323.073 356.554,324.324 355.250 C 325.576 353.947,327.000 352.761,327.489 352.617 C 327.978 352.472,329.238 351.397,330.289 350.228 C 331.340 349.059,332.740 347.825,333.400 347.485 C 334.977 346.674,343.600 337.901,343.600 337.107 C 343.600 336.769,344.046 336.200,344.592 335.842 C 345.137 335.485,345.883 334.609,346.249 333.896 C 346.616 333.183,348.779 330.740,351.058 328.466 C 354.285 325.245,355.200 324.091,355.200 323.244 C 355.200 322.459,355.764 321.615,357.227 320.214 C 358.341 319.145,359.762 317.265,360.383 316.036 C 361.004 314.806,361.912 313.440,362.400 313.000 C 362.889 312.560,363.880 311.030,364.604 309.600 C 365.327 308.170,366.387 306.564,366.960 306.030 C 367.562 305.469,368.000 304.625,368.000 304.026 C 368.000 303.456,368.330 302.787,368.735 302.534 C 369.612 301.986,378.400 284.414,378.400 283.208 C 378.400 282.747,379.300 280.476,380.400 278.161 C 381.500 275.846,382.404 273.468,382.409 272.876 C 382.414 272.284,383.056 270.630,383.836 269.200 C 385.170 266.753,385.764 264.753,386.273 261.000 C 386.392 260.120,386.672 259.175,386.895 258.899 C 387.117 258.623,387.557 257.273,387.872 255.899 C 388.498 253.165,388.832 251.823,389.792 248.200 C 390.838 244.252,391.235 242.004,391.613 237.901 C 391.810 235.756,392.158 233.653,392.386 233.227 C 392.614 232.801,392.800 231.021,392.800 229.272 C 392.800 227.229,393.014 225.682,393.398 224.946 C 394.267 223.278,394.269 189.121,393.400 187.600 C 393.055 186.996,392.823 185.459,392.814 183.720 C 392.806 182.135,392.530 179.802,392.200 178.535 C 391.870 177.269,391.600 175.158,391.600 173.844 C 391.600 171.621,391.366 170.444,390.320 167.400 C 390.093 166.740,389.757 165.390,389.572 164.400 C 389.388 163.410,389.076 161.736,388.879 160.680 C 388.682 159.625,388.314 158.554,388.060 158.300 C 387.807 158.047,387.594 157.201,387.586 156.420 C 387.578 155.639,387.314 154.550,387.000 154.000 C 386.686 153.450,386.416 152.460,386.402 151.800 C 386.387 151.140,385.932 149.700,385.391 148.600 C 384.850 147.500,384.406 146.194,384.404 145.698 C 384.402 145.202,383.950 143.863,383.400 142.723 C 382.850 141.583,382.400 140.256,382.400 139.775 C 382.400 139.293,381.950 137.882,381.400 136.638 C 380.850 135.395,380.400 133.874,380.400 133.258 C 380.400 132.582,380.004 131.768,379.400 131.200 C 378.850 130.683,378.400 129.819,378.400 129.280 C 378.400 128.740,377.689 126.927,376.820 125.250 C 375.950 123.572,374.406 120.517,373.388 118.461 C 370.563 112.757,369.635 111.089,368.782 110.181 C 368.352 109.723,368.000 108.899,368.000 108.349 C 368.000 107.746,367.503 106.883,366.748 106.175 C 366.060 105.529,365.060 104.028,364.527 102.841 C 363.994 101.653,363.029 100.188,362.383 99.584 C 361.738 98.981,360.838 97.622,360.385 96.564 C 359.919 95.478,358.621 93.731,357.402 92.551 C 356.215 91.401,354.798 89.592,354.253 88.530 C 353.708 87.469,351.718 84.980,349.831 83.000 C 347.944 81.020,346.400 79.276,346.400 79.124 C 346.400 78.973,345.680 78.017,344.800 77.000 C 343.920 75.983,343.200 74.983,343.200 74.778 C 343.200 74.190,333.699 64.800,333.104 64.800 C 332.810 64.800,331.677 63.886,330.585 62.769 C 329.493 61.651,328.150 60.495,327.600 60.198 C 327.050 59.901,325.070 58.191,323.200 56.398 C 321.287 54.564,318.794 52.624,317.500 51.963 C 316.235 51.317,315.200 50.609,315.200 50.389 C 315.200 50.170,314.165 49.330,312.900 48.524 C 311.635 47.718,310.420 46.837,310.200 46.566 C 309.980 46.296,308.720 45.514,307.400 44.829 C 306.080 44.143,304.683 43.204,304.295 42.741 C 303.379 41.647,272.248 26.000,270.986 26.000 C 270.456 26.000,269.005 25.550,267.762 25.000 C 266.518 24.450,265.107 24.000,264.625 24.000 C 264.144 24.000,262.817 23.550,261.677 23.000 C 260.537 22.450,259.187 22.000,258.677 22.000 C 258.167 22.000,256.771 21.521,255.575 20.935 C 253.544 19.940,252.684 19.701,248.000 18.828 C 247.010 18.643,245.660 18.303,245.000 18.071 C 242.353 17.141,237.011 16.116,232.400 15.653 C 230.970 15.509,229.530 15.216,229.200 15.002 C 228.355 14.454,224.411 14.022,217.200 13.688 C 213.496 13.516,210.648 13.199,210.126 12.900 C 208.816 12.150,193.383 12.205,191.926 12.965 M185.782 102.019 C 188.212 102.250,191.280 102.790,192.600 103.220 C 193.920 103.649,195.360 104.002,195.800 104.004 C 196.240 104.006,197.500 104.425,198.600 104.935 C 199.700 105.445,201.446 106.073,202.480 106.332 C 204.374 106.805,207.634 108.369,208.781 109.355 C 209.122 109.647,209.994 110.086,210.720 110.330 C 211.446 110.573,212.526 111.148,213.120 111.607 C 213.714 112.066,215.280 113.149,216.600 114.014 C 220.204 116.377,228.459 124.114,232.117 128.558 C 236.457 133.830,237.200 134.823,237.200 135.352 C 237.200 135.675,237.629 136.449,238.154 137.073 C 238.679 137.696,239.406 138.919,239.770 139.789 C 240.133 140.660,240.605 141.480,240.818 141.611 C 241.031 141.743,241.482 142.914,241.820 144.213 C 242.159 145.513,242.684 146.852,242.987 147.188 C 243.290 147.525,243.667 148.340,243.825 149.000 C 243.983 149.660,244.380 150.731,244.708 151.381 C 245.370 152.693,246.150 156.171,246.585 159.748 C 246.741 161.040,247.124 162.818,247.435 163.699 C 248.250 166.008,248.238 181.626,247.419 183.945 C 247.100 184.850,246.541 187.348,246.178 189.495 C 245.815 191.643,245.086 194.317,244.559 195.439 C 244.031 196.560,243.600 197.667,243.600 197.899 C 243.600 198.131,243.152 199.283,242.604 200.460 C 242.056 201.637,241.606 202.970,241.604 203.423 C 241.600 204.217,239.665 208.344,238.332 210.400 C 237.975 210.950,237.558 211.820,237.404 212.334 C 237.037 213.559,234.768 217.200,234.371 217.200 C 234.201 217.200,233.863 217.804,233.619 218.541 C 233.376 219.279,232.736 220.297,232.196 220.803 C 231.458 221.497,231.276 221.981,231.458 222.762 C 231.923 224.762,232.489 224.986,237.612 225.200 L 242.398 225.400 269.825 252.800 C 297.668 280.616,298.868 281.911,297.938 283.129 C 296.968 284.398,284.599 296.840,283.514 297.637 C 281.811 298.887,282.052 299.105,252.800 269.825 L 225.400 242.398 225.200 237.659 C 224.931 231.294,223.521 229.806,220.346 232.538 C 217.811 234.719,210.520 239.600,209.798 239.600 C 209.546 239.600,208.937 240.029,208.444 240.553 C 207.942 241.087,206.865 241.615,205.992 241.755 C 205.136 241.892,203.590 242.453,202.558 243.002 C 201.526 243.551,200.282 244.000,199.794 244.000 C 199.307 244.000,198.479 244.333,197.954 244.740 C 197.329 245.224,195.180 245.777,191.720 246.342 C 188.816 246.817,185.969 247.384,185.394 247.602 C 183.684 248.252,165.620 248.113,163.699 247.435 C 162.818 247.124,161.040 246.741,159.748 246.585 C 156.171 246.150,152.693 245.370,151.381 244.708 C 150.731 244.380,149.660 243.983,149.000 243.825 C 148.340 243.667,147.525 243.290,147.188 242.987 C 146.852 242.684,145.513 242.159,144.213 241.820 C 142.914 241.482,141.743 241.031,141.611 240.818 C 141.480 240.605,140.660 240.133,139.789 239.770 C 138.919 239.406,137.696 238.679,137.073 238.154 C 136.449 237.629,135.637 237.198,135.269 237.196 C 134.901 237.193,133.880 236.515,133.000 235.687 C 132.120 234.860,130.860 233.842,130.200 233.425 C 128.394 232.283,121.414 225.531,117.496 221.136 C 115.117 218.466,110.830 212.198,110.291 210.600 C 110.069 209.940,109.647 209.122,109.355 208.781 C 108.369 207.634,106.805 204.374,106.332 202.480 C 106.073 201.446,105.445 199.700,104.935 198.600 C 104.425 197.500,104.006 196.211,104.004 195.736 C 104.002 195.260,103.654 193.910,103.232 192.736 C 102.079 189.534,101.435 180.386,101.757 171.797 C 102.187 160.299,102.319 159.422,104.672 152.400 C 105.004 151.410,105.537 149.790,105.858 148.800 C 106.403 147.116,108.067 143.355,108.866 142.000 C 109.061 141.670,109.594 140.612,110.052 139.648 C 113.299 132.808,121.155 123.518,129.000 117.242 C 130.980 115.658,132.870 114.143,133.200 113.875 C 134.006 113.222,136.556 111.698,139.000 110.410 C 140.100 109.830,141.360 109.166,141.800 108.934 C 143.945 107.804,147.182 106.381,148.800 105.858 C 149.790 105.537,151.410 105.004,152.400 104.673 C 157.956 102.816,159.590 102.397,161.400 102.365 C 162.500 102.346,164.300 102.190,165.400 102.018 C 168.435 101.546,180.799 101.546,185.782 102.019 M168.952 124.379 C 168.485 124.575,166.634 124.864,164.838 125.021 C 162.585 125.217,161.278 125.538,160.619 126.056 C 160.094 126.469,159.065 126.923,158.332 127.065 C 156.318 127.455,151.106 129.590,150.200 130.396 C 149.760 130.788,149.019 131.223,148.553 131.364 C 148.087 131.505,147.384 131.976,146.991 132.410 C 146.598 132.845,146.039 133.200,145.749 133.200 C 145.196 133.200,144.365 133.920,139.800 138.358 C 136.004 142.048,133.200 145.207,133.200 145.792 C 133.200 146.058,132.845 146.598,132.410 146.991 C 131.976 147.384,131.505 148.087,131.364 148.553 C 131.223 149.019,130.788 149.760,130.396 150.200 C 129.583 151.115,127.454 156.324,127.057 158.374 C 126.910 159.129,126.491 160.078,126.125 160.483 C 123.762 163.094,123.723 186.868,126.077 189.466 C 126.450 189.877,126.939 191.020,127.164 192.006 C 127.717 194.430,129.596 198.766,130.700 200.166 C 131.195 200.794,131.600 201.456,131.600 201.636 C 131.600 203.147,139.920 212.388,143.922 215.322 C 144.881 216.025,146.236 217.064,146.933 217.631 C 147.630 218.198,149.457 219.243,150.994 219.954 C 152.530 220.664,154.119 221.545,154.523 221.911 C 159.613 226.517,189.543 226.279,195.511 221.584 C 196.059 221.153,196.675 220.800,196.879 220.800 C 197.533 220.800,202.398 218.329,202.705 217.842 C 202.867 217.584,203.990 216.754,205.200 215.998 C 208.033 214.227,214.227 208.033,215.998 205.200 C 216.754 203.990,217.584 202.867,217.842 202.705 C 218.329 202.398,220.800 197.533,220.800 196.879 C 220.800 196.675,221.153 196.059,221.584 195.511 C 224.067 192.354,224.888 187.721,225.078 175.778 C 225.256 164.581,224.122 156.966,221.911 154.523 C 221.545 154.119,220.664 152.530,219.954 150.994 C 219.243 149.457,218.198 147.630,217.631 146.933 C 217.064 146.236,215.970 144.807,215.200 143.758 C 212.212 139.686,203.176 131.600,201.613 131.600 C 201.420 131.600,200.753 131.185,200.131 130.678 C 198.876 129.654,193.220 127.201,192.109 127.199 C 191.719 127.198,190.770 126.797,190.000 126.308 C 187.635 124.806,171.456 123.323,168.952 124.379 " stroke="none" fill="#373769" fill-rule="evenodd"></path><path id="path1" d="M165.400 102.018 C 164.300 102.190,162.500 102.346,161.400 102.365 C 159.590 102.397,157.956 102.816,152.400 104.673 C 151.410 105.004,149.790 105.537,148.800 105.858 C 147.182 106.381,143.945 107.804,141.800 108.934 C 141.360 109.166,140.100 109.830,139.000 110.410 C 136.556 111.698,134.006 113.222,133.200 113.875 C 132.870 114.143,130.980 115.658,129.000 117.242 C 121.155 123.518,113.299 132.808,110.052 139.648 C 109.594 140.612,109.061 141.670,108.866 142.000 C 108.067 143.355,106.403 147.116,105.858 148.800 C 105.537 149.790,105.004 151.410,104.672 152.400 C 102.319 159.422,102.187 160.299,101.757 171.797 C 101.435 180.386,102.079 189.534,103.232 192.736 C 103.654 193.910,104.002 195.260,104.004 195.736 C 104.006 196.211,104.425 197.500,104.935 198.600 C 105.445 199.700,106.073 201.446,106.332 202.480 C 106.805 204.374,108.369 207.634,109.355 208.781 C 109.647 209.122,110.069 209.940,110.291 210.600 C 110.830 212.198,115.117 218.466,117.496 221.136 C 121.414 225.531,128.394 232.283,130.200 233.425 C 130.860 233.842,132.120 234.860,133.000 235.687 C 133.880 236.515,134.901 237.193,135.269 237.196 C 135.637 237.198,136.449 237.629,137.073 238.154 C 137.696 238.679,138.919 239.406,139.789 239.770 C 140.660 240.133,141.480 240.605,141.611 240.818 C 141.743 241.031,142.914 241.482,144.213 241.820 C 145.513 242.159,146.852 242.684,147.188 242.987 C 147.525 243.290,148.340 243.667,149.000 243.825 C 149.660 243.983,150.731 244.380,151.381 244.708 C 152.693 245.370,156.171 246.150,159.748 246.585 C 161.040 246.741,162.818 247.124,163.699 247.435 C 165.620 248.113,183.684 248.252,185.394 247.602 C 185.969 247.384,188.816 246.817,191.720 246.342 C 195.180 245.777,197.329 245.224,197.954 244.740 C 198.479 244.333,199.307 244.000,199.794 244.000 C 200.282 244.000,201.526 243.551,202.558 243.002 C 203.590 242.453,205.136 241.892,205.992 241.755 C 206.865 241.615,207.942 241.087,208.444 240.553 C 208.937 240.029,209.546 239.600,209.798 239.600 C 210.520 239.600,217.811 234.719,220.346 232.538 C 223.521 229.806,224.931 231.294,225.200 237.659 L 225.400 242.398 252.800 269.825 C 282.052 299.105,281.811 298.887,283.514 297.637 C 284.599 296.840,296.968 284.398,297.938 283.129 C 298.868 281.911,297.668 280.616,269.825 252.800 L 242.398 225.400 237.612 225.200 C 232.489 224.986,231.923 224.762,231.458 222.762 C 231.276 221.981,231.458 221.497,232.196 220.803 C 232.736 220.297,233.376 219.279,233.619 218.541 C 233.863 217.804,234.201 217.200,234.371 217.200 C 234.768 217.200,237.037 213.559,237.404 212.334 C 237.558 211.820,237.975 210.950,238.332 210.400 C 239.665 208.344,241.600 204.217,241.604 203.423 C 241.606 202.970,242.056 201.637,242.604 200.460 C 243.152 199.283,243.600 198.131,243.600 197.899 C 243.600 197.667,244.031 196.560,244.559 195.439 C 245.086 194.317,245.815 191.643,246.178 189.495 C 246.541 187.348,247.100 184.850,247.419 183.945 C 248.238 181.626,248.250 166.008,247.435 163.699 C 247.124 162.818,246.741 161.040,246.585 159.748 C 246.150 156.171,245.370 152.693,244.708 151.381 C 244.380 150.731,243.983 149.660,243.825 149.000 C 243.667 148.340,243.290 147.525,242.987 147.188 C 242.684 146.852,242.159 145.513,241.820 144.213 C 241.482 142.914,241.031 141.743,240.818 141.611 C 240.605 141.480,240.133 140.660,239.770 139.789 C 239.406 138.919,238.679 137.696,238.154 137.073 C 237.629 136.449,237.200 135.675,237.200 135.352 C 237.200 134.823,236.457 133.830,232.117 128.558 C 228.459 124.114,220.204 116.377,216.600 114.014 C 215.280 113.149,213.714 112.066,213.120 111.607 C 212.526 111.148,211.446 110.573,210.720 110.330 C 209.994 110.086,209.122 109.647,208.781 109.355 C 207.634 108.369,204.374 106.805,202.480 106.332 C 201.446 106.073,199.700 105.445,198.600 104.935 C 197.500 104.425,196.240 104.006,195.800 104.004 C 195.360 104.002,193.920 103.649,192.600 103.220 C 188.223 101.796,171.554 101.060,165.400 102.018 M184.800 124.884 C 187.313 125.238,189.074 125.720,190.000 126.308 C 190.770 126.797,191.719 127.198,192.109 127.199 C 193.220 127.201,198.876 129.654,200.131 130.678 C 200.753 131.185,201.420 131.600,201.613 131.600 C 203.176 131.600,212.212 139.686,215.200 143.758 C 215.970 144.807,217.064 146.236,217.631 146.933 C 218.198 147.630,219.243 149.457,219.954 150.994 C 220.664 152.530,221.545 154.119,221.911 154.523 C 226.517 159.613,226.279 189.543,221.584 195.511 C 221.153 196.059,220.800 196.675,220.800 196.879 C 220.800 197.533,218.329 202.398,217.842 202.705 C 217.584 202.867,216.754 203.990,215.998 205.200 C 214.227 208.033,208.033 214.227,205.200 215.998 C 203.990 216.754,202.867 217.584,202.705 217.842 C 202.398 218.329,197.533 220.800,196.879 220.800 C 196.675 220.800,196.059 221.153,195.511 221.584 C 192.354 224.067,187.721 224.888,175.778 225.078 C 164.581 225.256,156.966 224.122,154.523 221.911 C 154.119 221.545,152.530 220.664,150.994 219.954 C 149.457 219.243,147.630 218.198,146.933 217.631 C 146.236 217.064,144.881 216.025,143.922 215.322 C 139.920 212.388,131.600 203.147,131.600 201.636 C 131.600 201.456,131.195 200.794,130.700 200.166 C 129.596 198.766,127.717 194.430,127.164 192.006 C 126.939 191.020,126.450 189.877,126.077 189.466 C 123.723 186.868,123.762 163.094,126.125 160.483 C 126.491 160.078,126.910 159.129,127.057 158.374 C 127.454 156.324,129.583 151.115,130.396 150.200 C 130.788 149.760,131.223 149.019,131.364 148.553 C 131.505 148.087,131.976 147.384,132.410 146.991 C 132.845 146.598,133.200 146.058,133.200 145.792 C 133.200 145.207,136.004 142.048,139.800 138.358 C 144.365 133.920,145.196 133.200,145.749 133.200 C 146.039 133.200,146.598 132.845,146.991 132.410 C 147.384 131.976,148.087 131.505,148.553 131.364 C 149.019 131.223,149.760 130.788,150.200 130.396 C 151.106 129.590,156.318 127.455,158.332 127.065 C 159.065 126.923,160.094 126.469,160.619 126.056 C 161.278 125.538,162.585 125.217,164.838 125.021 C 166.634 124.864,168.485 124.575,168.952 124.379 C 170.089 123.899,180.067 124.217,184.800 124.884 " stroke="none" fill="#e62029" fill-rule="evenodd"></path></g></svg>