<svg id="svg" version="1.1" width="400" height="400" viewBox="0 0 400 400" xmlns="http://www.w3.org/2000/svg" xmlns:xlink="http://www.w3.org/1999/xlink" ><g id="svgg"><path id="path0" d="M191.926 12.965 C 191.215 13.336,188.850 13.598,184.926 13.741 C 178.038 13.991,173.441 14.503,172.713 15.102 C 172.431 15.334,171.120 15.610,169.800 15.716 C 166.345 15.992,158.972 17.389,154.600 18.595 C 153.280 18.959,151.390 19.412,150.400 19.600 C 147.311 20.188,144.272 21.080,142.400 21.948 C 141.410 22.407,140.188 22.786,139.684 22.791 C 139.180 22.796,138.071 23.156,137.218 23.591 C 136.366 24.025,134.808 24.574,133.755 24.810 C 132.703 25.046,130.212 26.023,128.221 26.981 C 126.229 27.940,123.970 28.849,123.200 29.002 C 121.007 29.438,106.388 36.847,105.725 37.859 C 105.404 38.349,104.623 38.863,103.989 39.002 C 103.356 39.141,102.424 39.573,101.919 39.962 C 101.413 40.351,99.043 41.639,96.650 42.824 C 94.258 44.010,92.032 45.390,91.703 45.892 C 91.374 46.394,90.316 47.153,89.352 47.580 C 88.389 48.006,87.600 48.540,87.600 48.765 C 87.600 48.991,86.655 49.814,85.500 50.594 C 81.350 53.399,79.791 54.573,79.273 55.287 C 78.984 55.685,78.139 56.265,77.396 56.576 C 75.370 57.423,51.413 81.606,50.169 84.060 C 49.632 85.122,48.218 87.011,47.029 88.259 C 45.840 89.506,44.357 91.501,43.735 92.690 C 43.112 93.880,41.658 95.786,40.504 96.927 C 39.055 98.358,38.404 99.319,38.402 100.030 C 38.401 100.601,37.967 101.467,37.429 101.972 C 36.895 102.474,36.075 103.829,35.607 104.984 C 35.127 106.165,34.240 107.464,33.577 107.954 C 32.682 108.615,32.400 109.145,32.400 110.163 C 32.400 111.048,32.131 111.689,31.606 112.051 C 30.840 112.580,25.200 122.940,25.200 123.817 C 25.200 124.054,24.936 124.596,24.613 125.024 C 24.290 125.451,24.020 126.287,24.013 126.882 C 24.006 127.489,23.561 128.402,23.000 128.964 C 22.450 129.514,22.000 130.395,22.000 130.923 C 22.000 131.451,21.010 133.966,19.800 136.511 C 18.590 139.057,17.600 141.508,17.600 141.958 C 17.600 142.409,17.150 143.795,16.600 145.038 C 16.050 146.282,15.600 147.615,15.600 148.001 C 15.600 148.387,15.353 149.309,15.051 150.051 C 14.749 150.793,14.279 152.660,14.008 154.200 C 13.736 155.740,13.276 157.630,12.984 158.400 C 12.692 159.170,12.243 161.060,11.986 162.600 C 11.729 164.140,11.267 165.878,10.959 166.462 C 10.652 167.046,10.400 168.092,10.400 168.788 C 10.400 169.484,10.176 170.446,9.903 170.926 C 9.630 171.407,9.280 173.420,9.126 175.400 C 8.971 177.380,8.540 181.070,8.168 183.600 C 7.289 189.564,6.865 224.011,7.637 226.600 C 8.197 228.476,8.733 232.364,9.126 237.400 C 9.280 239.380,9.630 241.393,9.903 241.874 C 10.176 242.354,10.400 243.227,10.400 243.813 C 10.400 244.399,10.653 245.446,10.962 246.140 C 11.271 246.833,11.629 248.030,11.757 248.800 C 12.243 251.707,12.781 253.985,13.147 254.680 C 13.355 255.076,13.816 257.015,14.171 258.988 C 14.526 260.961,14.992 262.752,15.208 262.968 C 15.424 263.184,15.600 263.842,15.600 264.430 C 15.600 265.019,16.050 266.518,16.600 267.762 C 17.150 269.005,17.600 270.366,17.600 270.785 C 17.600 271.205,18.590 273.584,19.800 276.072 C 21.010 278.560,22.000 281.023,22.000 281.544 C 22.000 282.827,30.231 299.302,31.439 300.437 C 31.985 300.950,32.400 301.797,32.400 302.400 C 32.400 303.025,32.826 303.859,33.436 304.430 C 34.006 304.964,35.002 306.480,35.649 307.800 C 36.296 309.120,37.180 310.499,37.613 310.864 C 38.046 311.229,38.404 311.949,38.409 312.464 C 38.414 313.041,39.269 314.308,40.635 315.765 C 41.854 317.065,43.316 319.045,43.883 320.165 C 44.450 321.284,45.845 323.131,46.982 324.269 C 48.120 325.406,49.394 327.116,49.814 328.069 C 50.657 329.977,74.449 354.208,77.400 356.163 C 80.431 358.171,81.803 359.183,82.800 360.147 C 83.350 360.679,84.523 361.559,85.406 362.103 C 86.289 362.646,87.267 363.399,87.579 363.775 C 87.891 364.151,88.789 364.788,89.573 365.190 C 90.358 365.593,91.445 366.399,91.989 366.982 C 92.534 367.565,94.784 368.914,96.989 369.981 C 99.195 371.047,101.439 372.390,101.974 372.965 C 103.171 374.248,123.487 384.400,124.859 384.400 C 125.402 384.400,127.096 385.033,128.623 385.807 C 130.150 386.581,132.458 387.491,133.751 387.831 C 135.044 388.170,136.484 388.690,136.951 388.984 C 137.418 389.279,138.767 389.721,139.949 389.966 C 141.131 390.212,142.571 390.665,143.149 390.974 C 144.283 391.581,149.282 392.803,150.620 392.801 C 151.071 392.800,151.618 392.978,151.836 393.196 C 152.206 393.566,154.297 394.091,157.600 394.643 C 158.370 394.771,159.567 395.129,160.260 395.438 C 160.954 395.747,162.124 396.004,162.860 396.010 C 163.597 396.015,164.920 396.215,165.800 396.455 C 166.680 396.694,168.660 397.041,170.200 397.226 C 178.376 398.205,180.400 398.645,180.400 399.443 C 180.400 399.912,183.698 400.000,201.200 400.000 C 218.987 400.000,222.000 399.917,222.000 399.427 C 222.000 398.565,222.904 398.369,232.200 397.222 C 233.740 397.032,235.629 396.680,236.397 396.438 C 237.166 396.197,238.521 396.000,239.408 396.000 C 240.296 396.000,241.377 395.752,241.811 395.450 C 242.245 395.147,243.320 394.799,244.200 394.676 C 247.199 394.256,249.399 393.748,250.274 393.274 C 250.754 393.013,251.587 392.800,252.124 392.800 C 252.661 392.800,254.118 392.350,255.362 391.800 C 256.605 391.250,257.955 390.800,258.362 390.800 C 258.768 390.800,260.118 390.350,261.362 389.800 C 262.605 389.250,263.977 388.800,264.410 388.800 C 264.843 388.800,266.341 388.260,267.738 387.600 C 269.135 386.940,270.710 386.400,271.238 386.400 C 272.030 386.400,279.012 383.368,283.732 380.974 C 284.355 380.658,285.188 380.400,285.583 380.400 C 286.894 380.400,290.759 378.439,291.841 377.225 C 292.427 376.567,293.771 375.742,294.828 375.391 C 295.885 375.040,296.806 374.605,296.875 374.426 C 296.944 374.246,298.296 373.448,299.881 372.654 C 301.465 371.859,303.355 370.691,304.081 370.058 C 304.806 369.426,306.173 368.516,307.118 368.037 C 308.063 367.557,309.525 366.543,310.367 365.783 C 311.208 365.022,312.104 364.400,312.357 364.400 C 312.611 364.400,313.579 363.704,314.509 362.854 C 315.439 362.003,316.763 361.020,317.452 360.668 C 318.140 360.317,318.807 359.759,318.934 359.427 C 319.061 359.096,319.814 358.554,320.607 358.223 C 321.400 357.892,323.073 356.554,324.324 355.250 C 325.576 353.947,327.000 352.761,327.489 352.617 C 327.978 352.472,329.238 351.397,330.289 350.228 C 331.340 349.059,332.740 347.825,333.400 347.485 C 334.977 346.674,343.600 337.901,343.600 337.107 C 343.600 336.769,344.046 336.200,344.592 335.842 C 345.137 335.485,345.883 334.609,346.249 333.896 C 346.616 333.183,348.779 330.740,351.058 328.466 C 354.285 325.245,355.200 324.091,355.200 323.244 C 355.200 322.459,355.764 321.615,357.227 320.214 C 358.341 319.145,359.762 317.265,360.383 316.036 C 361.004 314.806,361.912 313.440,362.400 313.000 C 362.889 312.560,363.880 311.030,364.604 309.600 C 365.327 308.170,366.387 306.564,366.960 306.030 C 367.562 305.469,368.000 304.625,368.000 304.026 C 368.000 303.456,368.330 302.787,368.735 302.534 C 369.612 301.986,378.400 284.414,378.400 283.208 C 378.400 282.747,379.300 280.476,380.400 278.161 C 381.500 275.846,382.404 273.468,382.409 272.876 C 382.414 272.284,383.056 270.630,383.836 269.200 C 385.170 266.753,385.764 264.753,386.273 261.000 C 386.392 260.120,386.672 259.175,386.895 258.899 C 387.117 258.623,387.557 257.273,387.872 255.899 C 388.498 253.165,388.832 251.823,389.792 248.200 C 390.838 244.252,391.235 242.004,391.613 237.901 C 391.810 235.756,392.158 233.653,392.386 233.227 C 392.614 232.801,392.800 231.021,392.800 229.272 C 392.800 227.229,393.014 225.682,393.398 224.946 C 394.267 223.278,394.269 189.121,393.400 187.600 C 393.055 186.996,392.823 185.459,392.814 183.720 C 392.806 182.135,392.530 179.802,392.200 178.535 C 391.870 177.269,391.600 175.158,391.600 173.844 C 391.600 171.621,391.366 170.444,390.320 167.400 C 390.093 166.740,389.757 165.390,389.572 164.400 C 389.388 163.410,389.076 161.736,388.879 160.680 C 388.682 159.625,388.314 158.554,388.060 158.300 C 387.807 158.047,387.594 157.201,387.586 156.420 C 387.578 155.639,387.314 154.550,387.000 154.000 C 386.686 153.450,386.416 152.460,386.402 151.800 C 386.387 151.140,385.932 149.700,385.391 148.600 C 384.850 147.500,384.406 146.194,384.404 145.698 C 384.402 145.202,383.950 143.863,383.400 142.723 C 382.850 141.583,382.400 140.256,382.400 139.775 C 382.400 139.293,381.950 137.882,381.400 136.638 C 380.850 135.395,380.400 133.874,380.400 133.258 C 380.400 132.582,380.004 131.768,379.400 131.200 C 378.850 130.683,378.400 129.819,378.400 129.280 C 378.400 128.740,377.689 126.927,376.820 125.250 C 375.950 123.572,374.406 120.517,373.388 118.461 C 370.563 112.757,369.635 111.089,368.782 110.181 C 368.352 109.723,368.000 108.899,368.000 108.349 C 368.000 107.746,367.503 106.883,366.748 106.175 C 366.060 105.529,365.060 104.028,364.527 102.841 C 363.994 101.653,363.029 100.188,362.383 99.584 C 361.738 98.981,360.838 97.622,360.385 96.564 C 359.919 95.478,358.621 93.731,357.402 92.551 C 356.215 91.401,354.798 89.592,354.253 88.530 C 353.708 87.469,351.718 84.980,349.831 83.000 C 347.944 81.020,346.400 79.276,346.400 79.124 C 346.400 78.973,345.680 78.017,344.800 77.000 C 343.920 75.983,343.200 74.983,343.200 74.778 C 343.200 74.190,333.699 64.800,333.104 64.800 C 332.810 64.800,331.677 63.886,330.585 62.769 C 329.493 61.651,328.150 60.495,327.600 60.198 C 327.050 59.901,325.070 58.191,323.200 56.398 C 321.287 54.564,318.794 52.624,317.500 51.963 C 316.235 51.317,315.200 50.609,315.200 50.389 C 315.200 50.170,314.165 49.330,312.900 48.524 C 311.635 47.718,310.420 46.837,310.200 46.566 C 309.980 46.296,308.720 45.514,307.400 44.829 C 306.080 44.143,304.683 43.204,304.295 42.741 C 303.379 41.647,272.248 26.000,270.986 26.000 C 270.456 26.000,269.005 25.550,267.762 25.000 C 266.518 24.450,265.107 24.000,264.625 24.000 C 264.144 24.000,262.817 23.550,261.677 23.000 C 260.537 22.450,259.187 22.000,258.677 22.000 C 258.167 22.000,256.771 21.521,255.575 20.935 C 253.544 19.940,252.684 19.701,248.000 18.828 C 247.010 18.643,245.660 18.303,245.000 18.071 C 242.353 17.141,237.011 16.116,232.400 15.653 C 230.970 15.509,229.530 15.216,229.200 15.002 C 228.355 14.454,224.411 14.022,217.200 13.688 C 213.496 13.516,210.648 13.199,210.126 12.900 C 208.816 12.150,193.383 12.205,191.926 12.965 M233.109 132.734 C 234.896 134.008,236.000 136.315,236.000 138.775 C 236.000 142.084,234.917 141.918,257.800 142.109 C 278.846 142.285,279.735 142.361,281.888 144.161 C 282.499 144.672,283.738 145.465,284.639 145.922 C 285.540 146.380,286.600 147.259,286.994 147.877 C 287.387 148.495,288.116 149.360,288.613 149.800 C 290.276 151.273,293.165 158.574,293.826 162.976 C 294.155 165.164,294.952 168.531,295.598 170.459 C 296.245 172.388,296.968 175.548,297.206 177.483 C 298.280 186.210,300.831 190.432,306.562 192.966 C 307.737 193.486,308.822 194.112,308.974 194.357 C 309.125 194.603,310.335 195.541,311.662 196.442 C 315.618 199.129,315.400 197.567,315.400 223.213 C 315.400 252.960,317.033 250.102,299.862 250.400 L 288.324 250.600 287.394 251.766 C 286.883 252.408,286.359 253.492,286.231 254.175 C 286.103 254.858,285.279 256.288,284.399 257.352 C 283.520 258.416,282.800 259.409,282.800 259.558 C 282.800 260.225,278.050 264.701,277.084 264.943 C 276.491 265.092,275.153 265.755,274.109 266.417 C 271.414 268.126,269.635 268.508,264.311 268.522 L 259.621 268.533 255.054 266.253 C 250.348 263.903,249.701 263.354,245.410 258.071 C 244.459 256.900,243.489 255.183,243.256 254.255 C 243.022 253.328,242.359 252.126,241.783 251.584 L 240.736 250.600 195.994 250.600 L 151.253 250.600 150.022 251.779 C 149.345 252.428,148.068 254.408,147.184 256.179 C 145.097 260.360,141.957 263.777,139.129 264.944 C 137.958 265.428,136.264 266.318,135.364 266.922 C 132.050 269.149,121.541 269.209,118.650 267.017 C 117.963 266.496,116.408 265.633,115.196 265.099 C 112.160 263.763,107.224 258.348,106.202 255.234 C 104.874 251.185,103.116 250.406,95.308 250.402 C 88.788 250.399,87.193 249.900,85.882 247.450 L 85.000 245.800 85.000 191.000 C 85.000 137.724,85.021 136.157,85.770 134.649 C 87.414 131.336,80.657 131.601,160.800 131.706 L 231.800 131.800 233.109 132.734 M96.369 142.769 L 95.200 143.938 95.200 174.700 L 95.200 205.461 96.232 206.430 L 97.264 207.400 160.447 207.504 L 223.629 207.607 224.624 206.612 L 225.619 205.617 225.509 174.451 C 225.404 144.446,225.372 143.252,224.638 142.442 L 223.876 141.600 160.707 141.600 L 97.538 141.600 96.369 142.769 M237.170 153.032 L 236.200 154.065 236.200 196.468 L 236.200 238.871 237.144 239.635 C 239.229 241.324,242.266 240.150,243.118 237.327 C 244.287 233.451,251.284 226.027,254.584 225.162 C 255.473 224.929,257.174 224.283,258.365 223.727 C 263.194 221.470,268.435 222.144,276.667 226.079 C 279.526 227.446,284.048 232.619,286.039 236.800 C 287.792 240.482,287.569 240.400,295.811 240.400 C 305.237 240.400,305.200 240.423,305.200 234.428 C 305.200 229.110,305.183 229.098,297.394 228.810 C 291.115 228.578,291.120 228.579,289.066 225.623 L 287.800 223.800 287.800 216.763 L 287.800 209.726 289.332 207.857 C 291.384 205.353,292.437 204.886,296.773 204.559 C 302.527 204.125,303.533 202.238,299.106 200.184 C 297.948 199.646,296.492 198.800,295.872 198.303 C 294.744 197.401,294.727 197.400,275.672 197.200 C 259.724 197.033,256.403 196.901,255.400 196.395 C 253.107 195.238,253.029 194.560,252.804 173.654 L 252.600 154.708 251.033 153.354 L 249.467 152.000 243.803 152.000 C 238.232 152.000,238.124 152.017,237.170 153.032 M264.531 152.583 C 262.412 153.505,262.400 153.599,262.400 169.751 L 262.400 184.755 263.365 185.878 L 264.330 187.000 275.207 187.119 C 289.204 187.271,289.672 187.056,287.856 181.296 C 287.319 179.593,286.681 176.580,286.437 174.600 C 285.971 170.809,285.401 168.460,284.046 164.743 C 283.593 163.502,283.107 161.760,282.965 160.872 C 282.625 158.745,280.479 155.221,278.858 154.128 C 276.092 152.263,267.418 151.328,264.531 152.583 M298.267 215.067 C 296.657 216.676,298.570 218.986,301.249 218.669 C 304.132 218.327,305.856 215.844,303.767 215.043 C 302.912 214.715,298.600 214.733,298.267 215.067 M96.800 218.701 L 95.400 219.400 95.293 228.858 L 95.186 238.317 96.473 239.400 C 99.554 241.993,104.928 240.002,106.261 235.774 C 107.057 233.248,113.172 226.522,115.400 225.721 C 116.060 225.484,118.130 224.705,120.000 223.990 C 126.337 221.569,130.478 222.027,139.200 226.114 C 141.077 226.994,145.533 231.956,147.066 234.873 C 147.886 236.433,149.127 238.314,149.825 239.054 L 151.094 240.400 187.485 240.400 C 228.483 240.400,225.200 240.666,225.200 237.345 C 225.200 234.006,226.555 234.225,204.533 234.000 C 181.355 233.763,180.885 233.663,181.150 229.036 C 181.388 224.885,180.602 225.032,203.915 224.800 C 226.197 224.578,224.405 224.830,225.240 221.808 C 225.736 220.015,225.448 219.271,223.961 218.506 C 222.211 217.606,98.612 217.795,96.800 218.701 M171.887 225.849 C 175.897 228.818,173.250 233.600,167.596 233.600 C 161.295 233.600,158.863 227.748,164.166 225.347 C 166.007 224.514,170.477 224.804,171.887 225.849 M124.154 232.845 C 121.090 233.226,116.170 237.061,114.757 240.171 C 112.729 244.636,113.862 250.828,117.376 254.482 C 125.576 263.010,139.501 257.727,139.716 246.006 C 139.882 237.008,133.575 231.675,124.154 232.845 M259.845 233.214 C 259.210 233.405,258.161 234.101,257.515 234.763 C 256.868 235.424,256.003 236.072,255.594 236.202 C 253.987 236.712,251.053 243.679,251.329 246.326 C 252.090 253.603,257.215 258.200,264.566 258.200 C 272.133 258.200,276.240 254.674,277.994 246.671 C 278.881 242.621,273.687 234.338,269.507 233.140 C 268.176 232.758,261.189 232.812,259.845 233.214 " stroke="none" fill="#383768" fill-rule="evenodd"></path><path id="path1" d="M88.170 132.356 C 84.729 133.923,85.000 128.915,85.000 191.000 L 85.000 245.800 85.882 247.450 C 87.193 249.900,88.788 250.399,95.308 250.402 C 103.116 250.406,104.874 251.185,106.202 255.234 C 107.224 258.348,112.160 263.763,115.196 265.099 C 116.408 265.633,117.963 266.496,118.650 267.017 C 121.541 269.209,132.050 269.149,135.364 266.922 C 136.264 266.318,137.958 265.428,139.129 264.944 C 141.957 263.777,145.097 260.360,147.184 256.179 C 148.068 254.408,149.345 252.428,150.022 251.779 L 151.253 250.600 195.994 250.600 L 240.736 250.600 241.783 251.584 C 242.359 252.126,243.022 253.328,243.256 254.255 C 243.489 255.183,244.459 256.900,245.410 258.071 C 249.701 263.354,250.348 263.903,255.054 266.253 L 259.621 268.533 264.311 268.522 C 269.635 268.508,271.414 268.126,274.109 266.417 C 275.153 265.755,276.491 265.092,277.084 264.943 C 278.050 264.701,282.800 260.225,282.800 259.558 C 282.800 259.409,283.520 258.416,284.399 257.352 C 285.279 256.288,286.103 254.858,286.231 254.175 C 286.359 253.492,286.883 252.408,287.394 251.766 L 288.324 250.600 299.862 250.400 C 317.033 250.102,315.400 252.960,315.400 223.213 C 315.400 197.567,315.618 199.129,311.662 196.442 C 310.335 195.541,309.125 194.603,308.974 194.357 C 308.822 194.112,307.737 193.486,306.562 192.966 C 300.831 190.432,298.280 186.210,297.206 177.483 C 296.968 175.548,296.245 172.388,295.598 170.459 C 294.952 168.531,294.155 165.164,293.826 162.976 C 293.165 158.574,290.276 151.273,288.613 149.800 C 288.116 149.360,287.387 148.495,286.994 147.877 C 286.600 147.259,285.540 146.380,284.639 145.922 C 283.738 145.465,282.499 144.672,281.888 144.161 C 279.735 142.361,278.846 142.285,257.800 142.109 C 234.917 141.918,236.000 142.084,236.000 138.775 C 236.000 136.315,234.896 134.008,233.109 132.734 L 231.800 131.800 160.800 131.706 C 92.364 131.616,89.741 131.640,88.170 132.356 M224.638 142.442 C 225.372 143.252,225.404 144.446,225.509 174.451 L 225.619 205.617 224.624 206.612 L 223.629 207.607 160.447 207.504 L 97.264 207.400 96.232 206.430 L 95.200 205.461 95.200 174.700 L 95.200 143.938 96.369 142.769 L 97.538 141.600 160.707 141.600 L 223.876 141.600 224.638 142.442 M251.033 153.354 L 252.600 154.708 252.804 173.654 C 253.029 194.560,253.107 195.238,255.400 196.395 C 256.403 196.901,259.724 197.033,275.672 197.200 C 294.727 197.400,294.744 197.401,295.872 198.303 C 296.492 198.800,297.948 199.646,299.106 200.184 C 303.533 202.238,302.527 204.125,296.773 204.559 C 292.437 204.886,291.384 205.353,289.332 207.857 L 287.800 209.726 287.800 216.763 L 287.800 223.800 289.066 225.623 C 291.120 228.579,291.115 228.578,297.394 228.810 C 305.183 229.098,305.200 229.110,305.200 234.428 C 305.200 240.423,305.237 240.400,295.811 240.400 C 287.569 240.400,287.792 240.482,286.039 236.800 C 284.048 232.619,279.526 227.446,276.667 226.079 C 268.435 222.144,263.194 221.470,258.365 223.727 C 257.174 224.283,255.473 224.929,254.584 225.162 C 251.284 226.027,244.287 233.451,243.118 237.327 C 242.266 240.150,239.229 241.324,237.144 239.635 L 236.200 238.871 236.200 196.468 L 236.200 154.065 237.170 153.032 C 238.124 152.017,238.232 152.000,243.803 152.000 L 249.467 152.000 251.033 153.354 M274.804 152.628 C 279.278 153.646,282.297 156.695,282.965 160.872 C 283.107 161.760,283.593 163.502,284.046 164.743 C 285.401 168.460,285.971 170.809,286.437 174.600 C 286.681 176.580,287.319 179.593,287.856 181.296 C 289.672 187.056,289.204 187.271,275.207 187.119 L 264.330 187.000 263.365 185.878 L 262.400 184.755 262.400 169.751 C 262.400 159.784,262.545 154.477,262.831 153.941 C 263.865 152.009,269.409 151.401,274.804 152.628 M303.767 215.043 C 305.856 215.844,304.132 218.327,301.249 218.669 C 298.570 218.986,296.657 216.676,298.267 215.067 C 298.600 214.733,302.912 214.715,303.767 215.043 M223.961 218.506 C 225.448 219.271,225.736 220.015,225.240 221.808 C 224.405 224.830,226.197 224.578,203.915 224.800 C 180.602 225.032,181.388 224.885,181.150 229.036 C 180.885 233.663,181.355 233.763,204.533 234.000 C 226.555 234.225,225.200 234.006,225.200 237.345 C 225.200 240.666,228.483 240.400,187.485 240.400 L 151.094 240.400 149.825 239.054 C 149.127 238.314,147.886 236.433,147.066 234.873 C 145.533 231.956,141.077 226.994,139.200 226.114 C 130.478 222.027,126.337 221.569,120.000 223.990 C 118.130 224.705,116.060 225.484,115.400 225.721 C 113.172 226.522,107.057 233.248,106.261 235.774 C 104.928 240.002,99.554 241.993,96.473 239.400 L 95.186 238.317 95.293 228.858 L 95.400 219.400 96.800 218.701 C 98.612 217.795,222.211 217.606,223.961 218.506 M164.166 225.347 C 158.863 227.748,161.295 233.600,167.596 233.600 C 173.250 233.600,175.897 228.818,171.887 225.849 C 170.477 224.804,166.007 224.514,164.166 225.347 M133.053 233.724 C 140.238 237.439,141.939 248.279,136.355 254.761 C 131.871 259.966,122.517 259.829,117.376 254.482 C 111.253 248.114,113.209 238.102,121.486 233.450 C 123.338 232.408,130.854 232.587,133.053 233.724 M269.507 233.140 C 273.687 234.338,278.881 242.621,277.994 246.671 C 276.240 254.674,272.133 258.200,264.566 258.200 C 257.215 258.200,252.090 253.603,251.329 246.326 C 251.053 243.679,253.987 236.712,255.594 236.202 C 256.003 236.072,256.868 235.424,257.515 234.763 C 259.240 232.998,265.879 232.100,269.507 233.140 " stroke="none" fill="#d02230" fill-rule="evenodd"></path></g></svg>