<?xml version="1.0"?>
<svg xmlns="http://www.w3.org/2000/svg" height="512px" viewBox="0 -17 512.0005 512" width="512px"><path d="m170.863281 34.132812h-60.339843c-4.710938 0-8.53125 3.820313-8.53125 8.535157 0 4.710937 3.820312 8.53125 8.53125 8.53125h60.339843c4.714844 0 8.535157-3.820313 8.535157-8.53125 0-4.714844-3.820313-8.535157-8.535157-8.535157zm0 0" fill="#FFFFFF"/><path d="m207.070312 51.199219h12.074219c4.714844 0 8.535157-3.820313 8.535157-8.53125 0-4.714844-3.820313-8.535157-8.535157-8.535157h-12.074219c-4.710937 0-8.535156 3.820313-8.535156 8.535157 0 4.710937 3.824219 8.53125 8.535156 8.53125zm0 0" fill="#FFFFFF"/><path d="m362.539062 132.394531c-30.015624-29.917969-75.355468-38.273437-114.066406-21.015625-.59375.195313-1.167968.457032-1.707031.773438-40.421875 18.957031-63.890625 61.933594-57.984375 106.191406 5.90625 44.253906 39.824219 79.574219 83.804688 87.261719 43.980468 7.691406 87.871093-14.019531 108.445312-53.644531s13.085938-88.015626-18.507812-119.566407zm-12.066406 132.746094c-24.40625 24.40625-61.109375 31.707031-92.996094 18.496094-31.886718-13.207031-52.675781-44.320313-52.675781-78.835938s20.789063-65.628906 52.675781-78.839843c31.886719-13.207032 68.589844-5.90625 92.996094 18.5 33.269532 33.347656 33.269532 87.332031 0 120.679687zm0 0" fill="#FFFFFF"/><path d="m474.171875 316.441406c-2.382813-2.425781-5.019531-4.585937-7.867187-6.441406l-21-13.996094c-8.464844-5.59375-19.429688-5.683594-27.980469-.222656l-14.269531-14.265625c28.933593-42.542969 31.464843-97.75 6.546874-142.761719v-113.152344c-.03125-14.128906-11.472656-25.5742182-25.601562-25.601562h-358.398438c-6.230468-.00390625-12.242187 2.273438-16.90625 6.398438-.453124.402343-.792968.855468-1.210937 1.316406-4.753906 4.742187-7.4453125 11.171875-7.484375 17.886718v213.332032c-.0429688 7.414062 3.199219 14.46875 8.847656 19.269531 4.621094 4.085937 10.582032 6.339844 16.753906 6.332031h141.847657c17.3125 35.632813 49.261719 61.980469 87.539062 72.1875 38.277344 10.210938 79.101563 3.277344 111.859375-19l14.269532 14.265625c-5.460938 8.554688-5.375 19.519531.222656 27.980469l13.90625 20.867188c1.878906 2.898437 4.066406 5.582031 6.527344 8.003906l38.871093 38.867187c4.792969 4.8125 11.308594 7.507813 18.097657 7.492188h36.191406c9.425781 0 17.066406-7.640625 17.066406-17.066407v-53.265624c.019531-6.792969-2.683594-13.308594-7.5-18.097657zm-87.5-208.210937c-16.421875-16.464844-36.800781-28.433594-59.179687-34.75l65.042968-48.023438c.003906.046875.003906.09375 0 .144531v89.113282c-1.921875-2.175782-3.789062-4.386719-5.863281-6.453125zm-369.46875 131.316406c-.015625-.210937-.136719-.398437-.136719-.613281v-213.332032c-.003906-.050781-.003906-.097656 0-.144531l149.335938 110.351563zm162.621094-114.960937-145.367188-107.519532h340.675781l-70.355468 52.054688c-4.863282-.542969-9.75-.828125-14.644532-.855469-43.722656-.214844-84.839843 20.777344-110.308593 56.320313zm-144.113281 122.882812 125.441406-87.273438c-9.851563 28.21875-10.085938 58.90625-.664063 87.273438zm169.941406 41.8125c-40.300782-40.300781-46.527344-103.457031-14.863282-150.847656 31.660157-47.390625 92.390626-65.816406 145.046876-44.007813 52.65625 21.804688 82.578124 77.773438 71.460937 133.671875-11.113281 55.902344-60.167969 96.164063-117.164063 96.167969-31.703124.09375-62.125-12.503906-84.480468-34.984375zm181.011718 12.066406c2.03125-2.023437 3.863282-4.199218 5.742188-6.324218l12.363281 12.355468-12.066406 12.066406-12.355469-12.363281c2.132813-1.886719 4.300782-3.714843 6.324219-5.746093zm108.269532 116.785156h-36.191406c-2.265626.003907-4.4375-.898437-6.039063-2.5l-38.835937-38.867187c-1.609376-1.597656-3.039063-3.363281-4.265626-5.265625l-13.996093-21c-2.257813-3.402344-1.8125-7.917969 1.066406-10.8125l28.375-28.375c2.890625-2.875 7.410156-3.324219 10.8125-1.066406l21.101563 14.019531c1.855468 1.21875 3.570312 2.636719 5.121093 4.226563l30.324219 30.328124c1.601562 1.597657 2.5 3.769532 2.5 6.03125zm0 0" fill="#FFFFFF"/><path d="m261.367188 145.671875c-.503907.207031-49.605469 20.703125-30.640626 87.039063 1.035157 3.679687 4.386719 6.21875 8.207032 6.222656.792968.003906 1.585937-.109375 2.347656-.332032 2.175781-.621093 4.019531-2.078124 5.121094-4.058593 1.101562-1.976563 1.371094-4.3125.75-6.488281-14.601563-51.074219 19.035156-65.894532 20.605468-66.5625 4.371094-1.761719 6.488282-6.734376 4.726563-11.105469-1.765625-4.371094-6.738281-6.484375-11.109375-4.722657zm0 0" fill="#FFFFFF"/><path d="m10.972656 469.582031c3.066406 5.15625 8.628906 8.308594 14.628906 8.285157h59.730469c4.714844 0 8.535157-3.820313 8.535157-8.535157 0-4.710937-3.820313-8.53125-8.535157-8.53125l-60.0625.597657 66.558594-103.5c2.816406-5.285157 2.660156-11.660157-.417969-16.800782-3.078125-5.136718-8.621094-8.285156-14.609375-8.296875h-59.734375c-4.710937 0-8.53125 3.820313-8.53125 8.53125 0 4.714844 3.820313 8.535157 8.53125 8.535157l60.074219-.597657-66.558594 103.5c-2.855469 5.277344-2.707031 11.671875.390625 16.8125zm0 0" fill="#FFFFFF"/><path d="m128 469.332031v-128c0-4.710937-3.820312-8.53125-8.53125-8.53125-4.714844 0-8.535156 3.820313-8.535156 8.53125v128c0 4.714844 3.820312 8.535157 8.535156 8.535157 4.710938 0 8.53125-3.820313 8.53125-8.535157zm0 0" fill="#FFFFFF"/><path d="m170.667969 469.332031v-51.199219h25.597656c23.566406 0 42.667969-19.101562 42.667969-42.664062 0-23.566406-19.101563-42.667969-42.667969-42.667969h-34.132813c-4.710937 0-8.53125 3.820313-8.53125 8.53125v128c0 4.714844 3.820313 8.535157 8.53125 8.535157 4.714844 0 8.535157-3.820313 8.535157-8.535157zm51.199219-93.863281c0 14.136719-11.460938 25.597656-25.601563 25.597656h-25.597656v-51.199218h25.597656c14.140625 0 25.601563 11.460937 25.601563 25.601562zm0 0" fill="#FFFFFF"/></svg>
